<?xml version="1.0" encoding="UTF-8"?>
<svg width="13px" height="24px" viewBox="0 0 13 24" version="1.1" xmlns="http://www.w3.org/2000/svg" xmlns:xlink="http://www.w3.org/1999/xlink">
    <g id="Page-1" stroke="none" stroke-width="1" fill="none" fill-rule="evenodd">
        <g id="Artboard" transform="translate(-978.000000, -518.000000)" fill="#6FB5D1" fill-rule="nonzero" stroke="#6FB5D1" stroke-width="0.5">
            <g id="Rigaland_BlueAnt_logo" transform="translate(979.000000, 518.000000)">
                <path d="M10.6239374,9.77873715 L11.0200753,10.174875 L11.4162132,9.77873715 L11.0200753,9.38259925 L10.6239374,9.77873715 Z M6.83979808,13.5628596 L6.44366019,13.9590535 L6.83979808,14.3551914 L7.23594157,13.9590535 L6.83979808,13.5628596 Z M3.08055535,9.80366731 L2.68441185,9.40747337 L2.28827397,9.80366731 L2.68441185,10.1998052 L3.08055535,9.80366731 Z M1.27825007,1.22533345 L10.2277995,10.174875 L11.0200753,9.38259925 L2.0705337,0.433049827 L1.27825007,1.22533345 Z M10.2277995,9.38259925 L6.44366019,13.1667217 L7.23594157,13.9590535 L11.0200753,10.174875 L10.2277995,9.38259925 Z M7.23594157,13.1667217 L3.47669884,9.40747337 L2.68441185,10.1998052 L6.44366019,13.9590535 L7.23594157,13.1667217 Z M3.47669884,10.1998052 L7.2230283,6.45344215 L6.43074689,5.66116637 L2.68441185,9.40747337 L3.47669884,10.1998052 Z" id="path0_stroke" transform="translate(6.347232, 7.394121) rotate(180.000000) translate(-6.347232, -7.394121) "></path>
                <polygon id="path1_stroke" points="9.12375653 12.1126186 11.5365187 9.69985647 10.7442373 8.90757286 8.33147293 11.3203373"></polygon>
                <polygon id="path2_stroke" points="8.07220627 3.46380403 10.4849745 1.0510419 9.69269312 0.258758276 7.27992372 2.67152265"></polygon>
                <polygon id="path3_stroke" transform="translate(2.460270, 1.861281) scale(-1, 1) translate(-2.460270, -1.861281) " points="1.65003027 3.46380403 4.06279239 1.0510419 3.27051101 0.258758276 0.857746644 2.67152265"></polygon>
                <path d="M9.50347971,18.1821711 L9.8996176,18.578309 L10.2957555,18.1821711 L9.8996176,17.7860332 L9.50347971,18.1821711 Z M5.71934043,21.9662934 L5.32320254,22.3624874 L5.71934043,22.7586253 L6.11548392,22.3624874 L5.71934043,21.9662934 Z M1.96009771,18.2071012 L1.56395421,17.8109073 L1.16781632,18.2071012 L1.56395421,18.6032391 L1.96009771,18.2071012 Z M0.157792425,9.62876738 L9.10734182,18.578309 L9.8996176,17.7860332 L0.950076057,8.8364837 L0.157792425,9.62876738 Z M9.10734182,17.7860332 L5.32320254,21.5701555 L6.11548392,22.3624874 L9.8996176,18.578309 L9.10734182,17.7860332 Z M6.11548392,21.5701555 L2.35624122,17.8109073 L1.56395421,18.6032391 L5.32320254,22.3624874 L6.11548392,21.5701555 Z M2.35624122,18.6032391 L6.10257065,14.8568761 L5.31028927,14.0646003 L1.56395421,17.8109073 L2.35624122,18.6032391 Z" id="path0_stroke"></path>
                <polygon id="path1_stroke" points="1.1796618 14.3222815 3.59242393 11.9095194 2.80014254 11.1172358 0.387378172 13.5300001"></polygon>
            </g>
        </g>
    </g>
</svg>