<?xml version="1.0" encoding="iso-8859-1"?>
<!-- Generator: Adobe Illustrator 16.0.0, SVG Export Plug-In . SVG Version: 6.00 Build 0)  -->
<!DOCTYPE svg PUBLIC "-//W3C//DTD SVG 1.1//EN" "http://www.w3.org/Graphics/SVG/1.1/DTD/svg11.dtd">
<svg version="1.1" id="Layer_1" xmlns="http://www.w3.org/2000/svg" xmlns:xlink="http://www.w3.org/1999/xlink" x="0px" y="0px"
	 width="37px" height="37px" viewBox="0 0 37 37" style="enable-background:new 0 0 37 37;" xml:space="preserve">
<path style="fill:#199654;" d="M18.5,3.001c8.547,0,15.5,6.953,15.5,15.5s-6.953,15.5-15.5,15.5S3,27.048,3,18.501
	S9.953,3.001,18.5,3.001 M18.5,0.001C8.283,0.001,0,8.284,0,18.501s8.283,18.5,18.5,18.5S37,28.718,37,18.501
	S28.717,0.001,18.5,0.001L18.5,0.001z"/>
<g>
	<path style="fill:#199654;" d="M9.17,12.526c0.54-0.096,1.14-0.171,1.8-0.225c0.66-0.054,1.32-0.081,1.98-0.081
		c0.672,0,1.35,0.051,2.034,0.153s1.299,0.306,1.845,0.612c0.546,0.306,0.993,0.732,1.341,1.278
		c0.348,0.546,0.522,1.269,0.522,2.169c0,0.792-0.15,1.467-0.45,2.025c-0.3,0.559-0.699,1.012-1.197,1.359
		c-0.498,0.347-1.065,0.603-1.701,0.765c-0.636,0.162-1.291,0.243-1.962,0.243c-0.06,0-0.162,0-0.306,0s-0.297-0.004-0.459-0.01
		c-0.162-0.006-0.315-0.015-0.459-0.026c-0.144-0.013-0.252-0.024-0.324-0.036V25H9.17V12.526z M13.13,14.56
		c-0.252,0-0.495,0.006-0.729,0.018c-0.234,0.012-0.423,0.036-0.567,0.072v3.744c0.048,0.012,0.126,0.024,0.234,0.036
		c0.108,0.012,0.222,0.021,0.342,0.027c0.12,0.006,0.231,0.012,0.333,0.018c0.102,0.006,0.183,0.009,0.243,0.009
		c0.348,0,0.696-0.024,1.044-0.072c0.348-0.048,0.657-0.15,0.927-0.306c0.27-0.156,0.489-0.369,0.657-0.639
		c0.168-0.27,0.252-0.633,0.252-1.089c0-0.384-0.079-0.693-0.234-0.927c-0.156-0.234-0.363-0.417-0.621-0.549
		c-0.258-0.132-0.552-0.222-0.882-0.27C13.799,14.584,13.466,14.56,13.13,14.56z"/>
</g>
<g>
	<path style="fill:#199654;" d="M28.609,21.346c0,0.564-0.108,1.096-0.324,1.594s-0.519,0.938-0.909,1.322
		c-0.39,0.385-0.857,0.688-1.403,0.909c-0.547,0.222-1.155,0.333-1.827,0.333s-1.29-0.102-1.854-0.307
		c-0.563-0.203-1.056-0.506-1.476-0.908s-0.747-0.9-0.981-1.494c-0.233-0.594-0.351-1.287-0.351-2.079
		c0-1.163,0.186-2.229,0.558-3.195s0.873-1.806,1.503-2.52c0.631-0.714,1.365-1.293,2.205-1.737s1.734-0.732,2.683-0.864
		l0.521,1.962c-0.647,0.096-1.245,0.279-1.791,0.549s-1.032,0.594-1.458,0.972s-0.782,0.798-1.07,1.26s-0.492,0.933-0.612,1.413
		c0.275-0.3,0.612-0.561,1.008-0.783c0.396-0.222,0.912-0.333,1.548-0.333c0.601,0,1.149,0.09,1.647,0.27s0.924,0.438,1.277,0.774
		c0.354,0.336,0.627,0.745,0.819,1.224S28.609,20.734,28.609,21.346z M26.161,21.454c0-1.272-0.714-1.908-2.142-1.908
		c-0.528,0-0.972,0.105-1.332,0.315s-0.612,0.459-0.756,0.746c-0.024,0.133-0.036,0.232-0.036,0.297c0,0.066,0,0.142,0,0.226
		c0,0.276,0.045,0.549,0.135,0.819c0.09,0.27,0.226,0.513,0.405,0.729c0.18,0.217,0.407,0.391,0.684,0.522s0.601,0.198,0.973,0.198
		c0.3,0,0.575-0.051,0.827-0.153c0.253-0.103,0.472-0.243,0.657-0.423c0.187-0.18,0.33-0.387,0.433-0.621
		C26.11,21.967,26.161,21.719,26.161,21.454z"/>
</g>
</svg>
