<?xml version="1.0" encoding="iso-8859-1"?>
<!-- Generator: Adobe Illustrator 16.0.0, SVG Export Plug-In . SVG Version: 6.00 Build 0)  -->
<!DOCTYPE svg PUBLIC "-//W3C//DTD SVG 1.1//EN" "http://www.w3.org/Graphics/SVG/1.1/DTD/svg11.dtd">
<svg version="1.1" id="Layer_1" xmlns:sketch="http://www.bohemiancoding.com/sketch/ns"
	 xmlns="http://www.w3.org/2000/svg" xmlns:xlink="http://www.w3.org/1999/xlink" x="0px" y="0px" width="23px" height="23px"
	 viewBox="0 0 23 23" style="enable-background:new 0 0 23 23;" xml:space="preserve">
<title>pano</title>
<desc>Created with Sketch.</desc>
<g id="Page-1" sketch:type="MSPage">
	<g id="pano" sketch:type="MSLayerGroup">
		<path id="Rectangle-2" sketch:type="MSShapeGroup" style="fill:#FFFFFF;" d="M0,0.959C0,0.429,0.429,0,0.959,0h21.082
			C22.57,0,23,0.429,23,0.959v21.082C23,22.57,22.571,23,22.041,23H0.959C0.429,23,0,22.571,0,22.041V0.959L0,0.959z M4.099,5.352
			L3.354,4.854V5.75v11.5v0.896l0.745-0.497c0.076-0.051,0.237-0.146,0.48-0.273c0.412-0.215,0.898-0.431,1.455-0.633
			c1.596-0.58,3.428-0.93,5.466-0.93s3.87,0.35,5.467,0.93c0.556,0.202,1.042,0.418,1.454,0.633
			c0.243,0.127,0.403,0.223,0.479,0.273l0.746,0.497V17.25V5.75V4.854L18.9,5.352c-0.076,0.05-0.236,0.146-0.479,0.273
			c-0.412,0.215-0.898,0.431-1.454,0.633c-1.597,0.581-3.429,0.93-5.467,0.93s-3.87-0.349-5.466-0.93
			C5.478,6.056,4.991,5.84,4.579,5.625C4.336,5.498,4.175,5.402,4.099,5.352L4.099,5.352z M8.344,11.979l0.62,0.62l-0.678,0.678
			L6.51,11.5l1.776-1.776l0.678,0.678l-0.62,0.62h6.312l-0.62-0.62l0.678-0.678L16.49,11.5l-1.776,1.776l-0.678-0.678l0.62-0.62
			H8.344z"/>
	</g>
</g>
</svg>
