<?xml version="1.0" encoding="utf-8"?>
<!-- Generator: Adobe Illustrator 16.0.0, SVG Export Plug-In . SVG Version: 6.00 Build 0)  -->
<!DOCTYPE svg PUBLIC "-//W3C//DTD SVG 1.1//EN" "http://www.w3.org/Graphics/SVG/1.1/DTD/svg11.dtd">
<svg version="1.1" id="Layer_1" xmlns="http://www.w3.org/2000/svg" xmlns:xlink="http://www.w3.org/1999/xlink" x="0px" y="0px"
	 width="37px" height="37px" viewBox="0 0 37 37" enable-background="new 0 0 37 37" xml:space="preserve">
<path fill="#199654" d="M18.5,3.001c8.547,0,15.5,6.953,15.5,15.5s-6.953,15.5-15.5,15.5S3,27.048,3,18.501S9.953,3.001,18.5,3.001
	 M18.5,0.001C8.283,0.001,0,8.284,0,18.501c0,10.217,8.283,18.5,18.5,18.5c10.217,0,18.5-8.283,18.5-18.5
	C37,8.284,28.717,0.001,18.5,0.001L18.5,0.001z"/>
<path fill="#199654" d="M23.557,21.607L19,19.784V12c0-0.829-0.671-1.5-1.5-1.5S16,11.171,16,12v9c0,0.828,0.671,1.5,1.5,1.5
	c0.058,0,0.113-0.011,0.169-0.017l4.774,1.909C22.626,24.466,22.814,24.5,23,24.5c0.595,0,1.158-0.356,1.393-0.943
	C24.7,22.788,24.326,21.915,23.557,21.607z"/>
</svg>
