<?xml version="1.0" encoding="utf-8"?>
<!-- Generator: Adobe Illustrator 16.0.0, SVG Export Plug-In . SVG Version: 6.00 Build 0)  -->
<!DOCTYPE svg PUBLIC "-//W3C//DTD SVG 1.1//EN" "http://www.w3.org/Graphics/SVG/1.1/DTD/svg11.dtd">
<svg version="1.1" id="Layer_1" xmlns="http://www.w3.org/2000/svg" xmlns:xlink="http://www.w3.org/1999/xlink" x="0px" y="0px"
	 width="29px" height="136px" viewBox="0 0 29 136" enable-background="new 0 0 29 136" xml:space="preserve">
<path opacity="0.2" fill="#FFFFFF" d="M16.8,3c5.073,0,9.2,4.028,9.2,8.979v23.229C26,40.056,21.873,44,16.801,44H12
	c-5.047,0-9-3.865-9-8.8V12c0-4.962,4.037-9,9-9H16.8 M16.8,0H12C5.373,0,0,5.373,0,12v23.2C0,41.828,5.373,47,12,47h4.801
	C23.428,47,29,41.836,29,35.208V11.979C29,5.352,23.427,0,16.8,0L16.8,0z"/>
<rect x="13" y="9" opacity="0.2" fill-rule="evenodd" clip-rule="evenodd" fill="#FFFFFF" width="3" height="9"/>
<polygon opacity="0.5" fill-rule="evenodd" clip-rule="evenodd" fill="#FFFFFF" points="9,69 20,69 15,76 14,76 "/>
<polygon opacity="0.2" fill-rule="evenodd" clip-rule="evenodd" fill="#FFFFFF" points="9,98 20,98 15,105 14,105 "/>
<polygon opacity="0.1" fill-rule="evenodd" clip-rule="evenodd" fill="#FFFFFF" points="9,127 20,127 15,134 14,134 "/>
</svg>
