<?xml version="1.0" encoding="utf-8"?>
<!-- Generator: Adobe Illustrator 16.0.0, SVG Export Plug-In . SVG Version: 6.00 Build 0)  -->
<!DOCTYPE svg PUBLIC "-//W3C//DTD SVG 1.1//EN" "http://www.w3.org/Graphics/SVG/1.1/DTD/svg11.dtd">
<svg version="1.1" id="Layer_1" xmlns="http://www.w3.org/2000/svg" xmlns:xlink="http://www.w3.org/1999/xlink" x="0px" y="0px"
	 width="37px" height="37px" viewBox="0 0 37 37" enable-background="new 0 0 37 37" xml:space="preserve">
<path fill="#199654" d="M18.5,3.001c8.547,0,15.5,6.953,15.5,15.5s-6.953,15.5-15.5,15.5S3,27.048,3,18.501S9.953,3.001,18.5,3.001
	 M18.5,0.001C8.283,0.001,0,8.284,0,18.501c0,10.217,8.283,18.5,18.5,18.5c10.217,0,18.5-8.283,18.5-18.5
	C37,8.284,28.717,0.001,18.5,0.001L18.5,0.001z"/>
<g>
	<path fill="#199654" d="M12.181,23l1.327-9.1h2.548l1.6,5.551l1.6-5.551h2.545l1.326,9.1h-2.443l-0.676-5.278L18.475,23h-1.638
		l-1.536-5.278L14.625,23H12.181z"/>
	<path fill="#199654" d="M27.449,17.503v1.167h-4.084l2.198-2.561c0.247-0.287,0.411-0.503,0.495-0.646
		c0.083-0.144,0.125-0.292,0.125-0.445c0-0.189-0.059-0.351-0.174-0.487s-0.271-0.204-0.471-0.204c-0.266,0-0.441,0.099-0.527,0.297
		c-0.088,0.198-0.131,0.399-0.131,0.604h-1.327c0.009-0.304,0.075-0.608,0.197-0.914c0.122-0.306,0.334-0.566,0.634-0.78
		c0.3-0.214,0.697-0.321,1.193-0.321c0.42,0,0.775,0.082,1.068,0.246c0.291,0.164,0.509,0.381,0.65,0.651
		c0.143,0.27,0.213,0.559,0.213,0.868c0,0.26-0.051,0.503-0.152,0.728s-0.261,0.467-0.477,0.725s-0.547,0.615-0.992,1.071H27.449z"
		/>
</g>
</svg>
