<?xml version="1.0" encoding="utf-8"?>
<!-- Generator: Adobe Illustrator 16.0.0, SVG Export Plug-In . SVG Version: 6.00 Build 0)  -->
<!DOCTYPE svg PUBLIC "-//W3C//DTD SVG 1.1//EN" "http://www.w3.org/Graphics/SVG/1.1/DTD/svg11.dtd">
<svg version="1.1" id="Layer_1" xmlns="http://www.w3.org/2000/svg" xmlns:xlink="http://www.w3.org/1999/xlink" x="0px" y="0px"
	 width="37px" height="37px" viewBox="0 0 37 37" enable-background="new 0 0 37 37" xml:space="preserve">
<g>
	<path fill="#FFFFFF" d="M18.5,0.001C8.283,0.001,0,8.284,0,18.501c0,10.217,8.283,18.5,18.5,18.5c10.217,0,18.5-8.283,18.5-18.5
		C37,8.284,28.717,0.001,18.5,0.001z M18.5,34.001c-8.547,0-15.5-6.953-15.5-15.5s6.953-15.5,15.5-15.5S34,9.954,34,18.501
		S27.047,34.001,18.5,34.001z"/>
	<polygon fill="#FFFFFF" points="20,12 17,12 17,17 12,17 12,20 17,20 17,25 20,25 20,20 25,20 25,17 20,17 	"/>
</g>
</svg>
