<?xml version="1.0" encoding="iso-8859-1"?>
<!-- Generator: Adobe Illustrator 16.0.0, SVG Export Plug-In . SVG Version: 6.00 Build 0)  -->
<!DOCTYPE svg PUBLIC "-//W3C//DTD SVG 1.1//EN" "http://www.w3.org/Graphics/SVG/1.1/DTD/svg11.dtd">
<svg version="1.1" id="Layer_1" xmlns="http://www.w3.org/2000/svg" xmlns:xlink="http://www.w3.org/1999/xlink" x="0px" y="0px"
	 width="37px" height="37px" viewBox="0 0 37 37" style="enable-background:new 0 0 37 37;" xml:space="preserve">
<path style="fill:#199654;" d="M18.5,3.001c8.547,0,15.5,6.953,15.5,15.5s-6.953,15.5-15.5,15.5S3,27.048,3,18.501
	S9.953,3.001,18.5,3.001 M18.5,0.001C8.283,0.001,0,8.284,0,18.501s8.283,18.5,18.5,18.5S37,28.718,37,18.501
	S28.717,0.001,18.5,0.001L18.5,0.001z"/>
<g>
	<path style="fill:#199654;" d="M9.17,12.526c0.54-0.096,1.14-0.171,1.8-0.225c0.66-0.054,1.32-0.081,1.98-0.081
		c0.672,0,1.35,0.051,2.034,0.153s1.299,0.306,1.845,0.612c0.546,0.306,0.993,0.732,1.341,1.278
		c0.348,0.546,0.522,1.269,0.522,2.169c0,0.792-0.15,1.467-0.45,2.025c-0.3,0.559-0.699,1.012-1.197,1.359
		c-0.498,0.347-1.065,0.603-1.701,0.765c-0.636,0.162-1.291,0.243-1.962,0.243c-0.06,0-0.162,0-0.306,0s-0.297-0.004-0.459-0.01
		c-0.162-0.006-0.315-0.015-0.459-0.026c-0.144-0.013-0.252-0.024-0.324-0.036V25H9.17V12.526z M13.13,14.56
		c-0.252,0-0.495,0.006-0.729,0.018c-0.234,0.012-0.423,0.036-0.567,0.072v3.744c0.048,0.012,0.126,0.024,0.234,0.036
		c0.108,0.012,0.222,0.021,0.342,0.027c0.12,0.006,0.231,0.012,0.333,0.018c0.102,0.006,0.183,0.009,0.243,0.009
		c0.348,0,0.696-0.024,1.044-0.072c0.348-0.048,0.657-0.15,0.927-0.306c0.27-0.156,0.489-0.369,0.657-0.639
		c0.168-0.27,0.252-0.633,0.252-1.089c0-0.384-0.079-0.693-0.234-0.927c-0.156-0.234-0.363-0.417-0.621-0.549
		c-0.258-0.132-0.552-0.222-0.882-0.27C13.799,14.584,13.466,14.56,13.13,14.56z"/>
</g>
<g>
	<path style="fill:#199654;" d="M29.275,21.777h-2.142v3.475h-2.358v-3.475h-5.922v-1.403l6.191-7.812h2.089v7.254h2.142V21.777z
		 M24.775,17.224l0.144-1.458h-0.071l-0.648,1.224l-1.998,2.323l-1.008,0.666l1.26-0.162h2.322V17.224z"/>
</g>
</svg>
