<?xml version="1.0" encoding="utf-8"?>
<!-- Generator: Adobe Illustrator 16.0.0, SVG Export Plug-In . SVG Version: 6.00 Build 0)  -->
<!DOCTYPE svg PUBLIC "-//W3C//DTD SVG 1.1//EN" "http://www.w3.org/Graphics/SVG/1.1/DTD/svg11.dtd">
<svg version="1.1" id="Layer_1" xmlns="http://www.w3.org/2000/svg" xmlns:xlink="http://www.w3.org/1999/xlink" x="0px" y="0px"
	 width="44px" height="43px" viewBox="0 0 44 43" enable-background="new 0 0 44 43" xml:space="preserve">
<path fill="#FFFFFF" d="M0,20.499l1.306-1.375L20.137,0.293c0.391-0.391,1.023-0.391,1.414,0s0.391,1.023,0,1.414l-18.85,18.85
	l18.883,20.771c0.371,0.408,0.342,1.041-0.066,1.413C21.324,42.914,21.084,43,20.844,43c-0.271,0-0.543-0.109-0.74-0.327
	L1.234,21.917L0,20.499z"/>
<path fill="#FFFFFF" d="M44,20.499l-1.306-1.375L23.863,0.293c-0.391-0.391-1.023-0.391-1.414,0s-0.391,1.023,0,1.414l18.85,18.85
	l-18.883,20.77c-0.372,0.409-0.342,1.041,0.067,1.413c0.192,0.174,0.433,0.26,0.673,0.26c0.271,0,0.543-0.109,0.74-0.327
	l18.869-20.756L44,20.499z"/>
</svg>
