<?xml version="1.0" encoding="iso-8859-1"?>
<!-- Generator: Adobe Illustrator 16.0.0, SVG Export Plug-In . SVG Version: 6.00 Build 0)  -->
<!DOCTYPE svg PUBLIC "-//W3C//DTD SVG 1.1//EN" "http://www.w3.org/Graphics/SVG/1.1/DTD/svg11.dtd">
<svg version="1.1" id="Layer_1" xmlns="http://www.w3.org/2000/svg" xmlns:xlink="http://www.w3.org/1999/xlink" x="0px" y="0px"
	 width="23px" height="23px" viewBox="0 0 23 23" style="enable-background:new 0 0 23 23;" xml:space="preserve">
<g>
	<path style="fill:#FFFFFF;" d="M21,0H2C0.462,0,0,0.35,0,2v19c0,1.575,0.462,2,2,2h8h4h7c1.688,0,2-0.425,2-2V2
		C23,0.35,22.688,0,21,0z M8.322,10.49C8.4,10.376,8.49,10.268,8.58,10.16c0.013-0.018,0.03-0.03,0.042-0.048
		c0.084-0.09,0.168-0.181,0.258-0.258c0.019-0.019,0.036-0.03,0.049-0.048C9.03,9.716,9.132,9.632,9.246,9.561
		c0.007-0.007,0.013-0.007,0.019-0.013c0.12-0.084,0.246-0.162,0.372-0.228c0.006-0.006,0.012-0.006,0.018-0.006
		C9.769,9.254,9.889,9.2,10.009,9.152c0.035-0.012,0.071-0.03,0.113-0.042c0.097-0.036,0.192-0.066,0.288-0.09
		c0.048-0.013,0.09-0.024,0.139-0.036c0.096-0.024,0.197-0.042,0.294-0.055c0.042-0.006,0.084-0.012,0.132-0.018
		c0.144-0.018,0.288-0.024,0.432-0.024c0.15,0,0.294,0.013,0.433,0.024c0.041,0.006,0.084,0.012,0.132,0.018
		c0.102,0.019,0.198,0.03,0.294,0.055c0.048,0.012,0.09,0.023,0.138,0.036c0.096,0.023,0.192,0.06,0.288,0.09
		c0.036,0.012,0.072,0.023,0.114,0.042c0.12,0.048,0.239,0.102,0.354,0.162c0.006,0.006,0.013,0.006,0.019,0.006
		c0.132,0.072,0.252,0.144,0.372,0.228c0.006,0.006,0.012,0.006,0.018,0.013c0.108,0.077,0.216,0.162,0.312,0.246
		c0.019,0.012,0.036,0.029,0.049,0.048c0.09,0.084,0.18,0.168,0.258,0.258c0.012,0.018,0.029,0.03,0.042,0.048
		c0.09,0.102,0.18,0.216,0.258,0.33c0.438,0.612,0.69,1.355,0.69,2.16c0,2.082-1.687,3.768-3.769,3.768s-3.768-1.686-3.768-3.768
		C7.639,11.846,7.891,11.103,8.322,10.49z M21,20c0,0.876-0.124,1-1,1H3c-0.876,0-1-0.124-1-1V10h4
		c-0.275,0.666-0.233,1.882-0.233,2.65c0,3.113,2.525,5.64,5.64,5.64s5.64-2.526,5.64-5.64c0-0.763,0.23-1.984-0.046-2.65h4V20z
		 M21,5c0,0.534-0.46,1-1,1h-2c-0.534,0-1-0.46-1-1V3c0-0.534,0.46-1,1-1h2c0.534,0,1,0.46,1,1V5z"/>
</g>
</svg>
