<?xml version="1.0" encoding="utf-8"?>
<!-- Generator: Adobe Illustrator 16.0.0, SVG Export Plug-In . SVG Version: 6.00 Build 0)  -->
<!DOCTYPE svg PUBLIC "-//W3C//DTD SVG 1.1//EN" "http://www.w3.org/Graphics/SVG/1.1/DTD/svg11.dtd">
<svg version="1.1" id="Layer_2" xmlns="http://www.w3.org/2000/svg" xmlns:xlink="http://www.w3.org/1999/xlink" x="0px" y="0px"
	 width="19px" height="19px" viewBox="0 0 19 19" enable-background="new 0 0 19 19" xml:space="preserve">
<path fill="#FFFFFF" d="M10.914,9.5l7.793-7.793c0.391-0.391,0.391-1.023,0-1.414s-1.023-0.391-1.414,0L9.5,8.086L1.707,0.293
	c-0.391-0.391-1.023-0.391-1.414,0s-0.391,1.023,0,1.414L8.086,9.5l-7.793,7.793c-0.391,0.391-0.391,1.023,0,1.414
	C0.488,18.902,0.744,19,1,19s0.512-0.098,0.707-0.293L9.5,10.914l7.793,7.793C17.488,18.902,17.744,19,18,19
	s0.512-0.098,0.707-0.293c0.391-0.391,0.391-1.023,0-1.414L10.914,9.5z"/>
</svg>
