<?xml version="1.0" encoding="utf-8"?>
<!-- Generator: Adobe Illustrator 16.0.0, SVG Export Plug-In . SVG Version: 6.00 Build 0)  -->
<!DOCTYPE svg PUBLIC "-//W3C//DTD SVG 1.1//EN" "http://www.w3.org/Graphics/SVG/1.1/DTD/svg11.dtd">
<svg version="1.1" id="Layer_1" xmlns="http://www.w3.org/2000/svg" xmlns:xlink="http://www.w3.org/1999/xlink" x="0px" y="0px"
	 width="37px" height="37px" viewBox="0 0 37 37" enable-background="new 0 0 37 37" xml:space="preserve">
<path fill="#199654" d="M18.5,3.001c8.547,0,15.5,6.953,15.5,15.5s-6.953,15.5-15.5,15.5S3,27.048,3,18.501S9.953,3.001,18.5,3.001
	 M18.5,0.001C8.283,0.001,0,8.284,0,18.501c0,10.217,8.283,18.5,18.5,18.5c10.217,0,18.5-8.283,18.5-18.5
	C37,8.284,28.717,0.001,18.5,0.001L18.5,0.001z"/>
<g>
	<path fill="#199654" d="M22.753,14.514c0,0.6-0.119,1.206-0.359,1.818s-0.543,1.209-0.909,1.791s-0.774,1.149-1.224,1.702
		c-0.45,0.552-0.892,1.062-1.324,1.529l-1.026,0.738v0.09l1.387-0.288h3.726V24h-8.226v-1.26c0.312-0.312,0.663-0.663,1.053-1.054
		c0.39-0.39,0.783-0.807,1.179-1.251c0.396-0.443,0.783-0.902,1.161-1.377c0.378-0.474,0.711-0.945,1-1.413s0.521-0.927,0.702-1.377
		c0.18-0.45,0.27-0.867,0.27-1.251c0-0.456-0.138-0.843-0.414-1.161c-0.275-0.318-0.75-0.477-1.422-0.477
		c-0.42,0-0.846,0.087-1.278,0.261c-0.432,0.174-0.804,0.399-1.116,0.675l-1.044-1.8c0.516-0.384,1.092-0.708,1.728-0.972
		c0.636-0.264,1.398-0.396,2.286-0.396c0.552,0,1.064,0.072,1.539,0.216c0.474,0.144,0.882,0.354,1.224,0.63
		c0.343,0.276,0.609,0.627,0.802,1.053C22.657,13.473,22.753,13.962,22.753,14.514z"/>
</g>
</svg>
