<?xml version="1.0" encoding="utf-8"?>
<!-- Generator: Adobe Illustrator 21.0.2, SVG Export Plug-In . SVG Version: 6.00 Build 0)  -->
<svg version="1.1" id="Layer_1" xmlns="http://www.w3.org/2000/svg" xmlns:xlink="http://www.w3.org/1999/xlink" x="0px" y="0px"
	 width="14px" height="19px" viewBox="0 0 14 19" style="enable-background:new 0 0 14 19;" xml:space="preserve">
<style type="text/css">
	.st0{fill-rule:evenodd;clip-rule:evenodd;fill:#FFFFFF;}
</style>
<path class="st0" d="M14,7.4C14,13.9,7.4,19,7.4,19H6.6C6.6,19,0,13.8,0,7.4c0-0.1,0-0.1,0-0.2C0,7.2,0,7.1,0,7c0-3.9,3.1-7,7-7
	s7,3.2,7,7c0,0.1,0,0.1,0,0.2C14,7.3,14,7.4,14,7.4z M7,2C4.2,2,2,4.2,2,7s2.2,5,5,5c2.8,0,5-2.2,5-5S9.8,2,7,2z M7,10
	c-1.7,0-3-1.3-3-3c0-1.7,1.3-3,3-3s3,1.3,3,3C10,8.7,8.7,10,7,10z"/>
</svg>
