<?xml version="1.0" encoding="utf-8"?>
<!-- Generator: Adobe Illustrator 16.0.0, SVG Export Plug-In . SVG Version: 6.00 Build 0)  -->
<!DOCTYPE svg PUBLIC "-//W3C//DTD SVG 1.1//EN" "http://www.w3.org/Graphics/SVG/1.1/DTD/svg11.dtd">
<svg version="1.1" id="Layer_1" xmlns="http://www.w3.org/2000/svg" xmlns:xlink="http://www.w3.org/1999/xlink" x="0px" y="0px"
	 width="37px" height="37px" viewBox="0 0 37 37" enable-background="new 0 0 37 37" xml:space="preserve">
<path fill="#199654" d="M18.5,3.001c8.547,0,15.5,6.953,15.5,15.5s-6.953,15.5-15.5,15.5S3,27.048,3,18.501S9.953,3.001,18.5,3.001
	 M18.5,0.001C8.283,0.001,0,8.284,0,18.501c0,10.217,8.283,18.5,18.5,18.5c10.217,0,18.5-8.283,18.5-18.5
	C37,8.284,28.717,0.001,18.5,0.001L18.5,0.001z"/>
<polygon fill="#199654" points="16,12 16,15 19.796,15 12.585,22.211 14.706,24.332 22,17.038 22,21 25,21 25,12 "/>
</svg>
