<?xml version="1.0" encoding="iso-8859-1"?>
<!-- Generator: Adobe Illustrator 16.0.0, SVG Export Plug-In . SVG Version: 6.00 Build 0)  -->
<!DOCTYPE svg PUBLIC "-//W3C//DTD SVG 1.1//EN" "http://www.w3.org/Graphics/SVG/1.1/DTD/svg11.dtd">
<svg version="1.1" id="Layer_1" xmlns="http://www.w3.org/2000/svg" xmlns:xlink="http://www.w3.org/1999/xlink" x="0px" y="0px"
	 width="23px" height="23px" viewBox="0 0 23 23" style="enable-background:new 0 0 23 23;" xml:space="preserve">
<path style="fill:#FFFFFF;" d="M2,0h19c1.688,0,2,0.35,2,2v19c0,1.574-0.312,2-2,2h-7v-8h3v-3h-3V9c0-0.713,0.562-1.013,1.763-1.013
	L17,8V4h-3c-2.362,0-3.646,1.55-4,4v4H8v3h2v8H2c-1.538,0-2-0.426-2-2V2C0,0.35,0.462,0,2,0z"/>
</svg>
