<?xml version="1.0" encoding="utf-8"?>
<!-- Generator: Adobe Illustrator 16.0.0, SVG Export Plug-In . SVG Version: 6.00 Build 0)  -->
<!DOCTYPE svg PUBLIC "-//W3C//DTD SVG 1.1//EN" "http://www.w3.org/Graphics/SVG/1.1/DTD/svg11.dtd">
<svg version="1.1" id="Layer_1" xmlns="http://www.w3.org/2000/svg" xmlns:xlink="http://www.w3.org/1999/xlink" x="0px" y="0px"
	 width="37px" height="37px" viewBox="0 0 37 37" enable-background="new 0 0 37 37" xml:space="preserve">
<path fill="#199654" d="M18.5,3.001c8.547,0,15.5,6.953,15.5,15.5s-6.953,15.5-15.5,15.5S3,27.048,3,18.501S9.953,3.001,18.5,3.001
	 M18.5,0.001C8.283,0.001,0,8.284,0,18.501c0,10.217,8.283,18.5,18.5,18.5c10.217,0,18.5-8.283,18.5-18.5
	C37,8.284,28.717,0.001,18.5,0.001L18.5,0.001z"/>
<g>
	<path fill="#199654" d="M9.17,12.526c0.54-0.096,1.14-0.171,1.8-0.225c0.66-0.054,1.32-0.081,1.98-0.081
		c0.672,0,1.35,0.051,2.034,0.153s1.299,0.306,1.845,0.612c0.546,0.306,0.993,0.732,1.341,1.278s0.522,1.269,0.522,2.169
		c0,0.792-0.15,1.467-0.45,2.025c-0.3,0.559-0.699,1.012-1.197,1.359s-1.065,0.603-1.701,0.765
		c-0.636,0.162-1.291,0.243-1.962,0.243c-0.06,0-0.162,0-0.306,0s-0.297-0.003-0.459-0.01c-0.162-0.006-0.315-0.014-0.459-0.026
		c-0.144-0.012-0.252-0.024-0.324-0.036V25H9.17V12.526z M13.13,14.56c-0.252,0-0.495,0.006-0.729,0.018
		c-0.234,0.012-0.423,0.036-0.567,0.072v3.744c0.048,0.012,0.126,0.024,0.234,0.036c0.108,0.012,0.222,0.021,0.342,0.027
		c0.12,0.006,0.231,0.012,0.333,0.018c0.102,0.006,0.183,0.009,0.243,0.009c0.348,0,0.696-0.024,1.044-0.072s0.657-0.15,0.927-0.306
		c0.27-0.156,0.489-0.369,0.657-0.639s0.252-0.633,0.252-1.089c0-0.384-0.079-0.693-0.234-0.927
		c-0.156-0.234-0.363-0.417-0.621-0.549c-0.258-0.132-0.552-0.222-0.882-0.27C13.799,14.584,13.466,14.56,13.13,14.56z"/>
	<path fill="#199654" d="M28.232,15.514c0,0.6-0.12,1.206-0.36,1.818s-0.543,1.209-0.909,1.791
		c-0.365,0.582-0.773,1.148-1.224,1.701c-0.45,0.552-0.892,1.062-1.323,1.529l-1.025,0.738v0.09l1.386-0.287h3.726V25h-8.226v-1.26
		c0.312-0.312,0.663-0.663,1.053-1.053c0.39-0.391,0.783-0.808,1.179-1.252c0.396-0.443,0.783-0.902,1.161-1.377
		c0.378-0.474,0.712-0.945,0.999-1.413c0.288-0.468,0.521-0.927,0.702-1.377s0.271-0.867,0.271-1.251
		c0-0.456-0.139-0.843-0.414-1.161c-0.276-0.318-0.75-0.477-1.422-0.477c-0.421,0-0.847,0.087-1.278,0.261
		c-0.433,0.174-0.804,0.399-1.116,0.675l-1.044-1.8c0.516-0.384,1.092-0.708,1.728-0.972c0.637-0.264,1.398-0.396,2.287-0.396
		c0.551,0,1.064,0.072,1.538,0.216c0.474,0.144,0.882,0.354,1.224,0.63c0.343,0.276,0.609,0.627,0.802,1.053
		C28.136,14.473,28.232,14.962,28.232,15.514z"/>
</g>
</svg>
