<?xml version="1.0" encoding="utf-8"?>
<!-- Generator: Adobe Illustrator 16.0.0, SVG Export Plug-In . SVG Version: 6.00 Build 0)  -->
<!DOCTYPE svg PUBLIC "-//W3C//DTD SVG 1.1//EN" "http://www.w3.org/Graphics/SVG/1.1/DTD/svg11.dtd">
<svg version="1.1" id="Layer_1" xmlns="http://www.w3.org/2000/svg" xmlns:xlink="http://www.w3.org/1999/xlink" x="0px" y="0px"
	 width="37px" height="37px" viewBox="0 0 37 37" enable-background="new 0 0 37 37" xml:space="preserve">
<path fill="#199654" d="M18.5,3.001c8.547,0,15.5,6.953,15.5,15.5s-6.953,15.5-15.5,15.5S3,27.048,3,18.501S9.953,3.001,18.5,3.001
	 M18.5,0.001C8.283,0.001,0,8.284,0,18.501c0,10.217,8.283,18.5,18.5,18.5c10.217,0,18.5-8.283,18.5-18.5
	C37,8.284,28.717,0.001,18.5,0.001L18.5,0.001z"/>
<path fill="#189654" d="M18.5,13c1.93,0,3.5,1.346,3.5,2.985c-0.058,0.918-1.549,3.479-3.501,6.156
	C16.548,19.468,15.058,16.911,15,16C15,14.346,16.57,13,18.5,13 M18.5,10c-3.59,0-6.5,2.687-6.5,6s6.5,11,6.5,11S25,19.313,25,16
	S22.09,10,18.5,10L18.5,10z"/>
</svg>
