<?xml version="1.0" encoding="utf-8"?>
<!-- Generator: Adobe Illustrator 21.0.2, SVG Export Plug-In . SVG Version: 6.00 Build 0)  -->
<svg version="1.1" id="Layer_1" xmlns="http://www.w3.org/2000/svg" xmlns:xlink="http://www.w3.org/1999/xlink" x="0px" y="0px"
	 width="16px" height="14px" viewBox="0 0 16 14" style="enable-background:new 0 0 16 14;" xml:space="preserve">
<style type="text/css">
	.st0{fill:#666666;}
</style>
<g>
	<g>
		<path class="st0" d="M13,2L13,2l0-2H3v2C1.3,2,0,3.3,0,5v4c0,1.7,1.3,3,3,3v2h10v-2h0c1.7,0,3-1.3,3-3V5C16,3.3,14.7,2,13,2z
			 M12,13H4V8h8V13z M12,2H4V1h8V2z M11,9H5v1h6V9z M11,11H5v1h6V11z"/>
	</g>
</g>
</svg>
