<?xml version="1.0" encoding="utf-8"?>
<!-- Generator: Adobe Illustrator 16.0.0, SVG Export Plug-In . SVG Version: 6.00 Build 0)  -->
<!DOCTYPE svg PUBLIC "-//W3C//DTD SVG 1.1//EN" "http://www.w3.org/Graphics/SVG/1.1/DTD/svg11.dtd">
<svg version="1.1" id="Layer_1" xmlns="http://www.w3.org/2000/svg" xmlns:xlink="http://www.w3.org/1999/xlink" x="0px" y="0px"
	 width="37px" height="37px" viewBox="0 0 37 37" enable-background="new 0 0 37 37" xml:space="preserve">
<path fill="#199654" d="M18.5,3.001c8.547,0,15.5,6.953,15.5,15.5s-6.953,15.5-15.5,15.5S3,27.048,3,18.501S9.953,3.001,18.5,3.001
	 M18.5,0.001C8.283,0.001,0,8.284,0,18.501c0,10.217,8.283,18.5,18.5,18.5c10.217,0,18.5-8.283,18.5-18.5
	C37,8.284,28.717,0.001,18.5,0.001L18.5,0.001z"/>
<g>
	<path fill-rule="evenodd" clip-rule="evenodd" fill="#199654" d="M21.347,25.337c-0.993-0.012-1.908-0.3-2.775-0.761
		c-1.052-0.559-1.957-1.312-2.786-2.157c-0.945-0.963-1.801-1.997-2.505-3.152c-0.509-0.835-0.924-1.713-1.133-2.674
		c-0.265-1.215-0.195-2.396,0.414-3.508c0.271-0.495,0.629-0.921,1.07-1.276c0.199-0.161,0.388-0.333,0.584-0.497
		c0.525-0.436,0.998-0.414,1.484,0.062c0.463,0.453,0.769,1.018,1.108,1.558c0.197,0.312,0.355,0.645,0.444,1.006
		c0.13,0.533,0.008,0.999-0.397,1.368c-0.293,0.268-0.605,0.516-0.918,0.76c-0.408,0.317-0.556,0.728-0.441,1.226
		c0.121,0.522,0.38,0.978,0.684,1.406c0.601,0.844,1.274,1.626,2.079,2.285c0.346,0.282,0.714,0.529,1.162,0.626
		c0.398,0.086,0.733-0.024,1.025-0.304c0.287-0.275,0.576-0.55,0.879-0.807c0.492-0.42,1.045-0.45,1.595-0.145
		c0.365,0.201,0.707,0.455,1.034,0.718c0.419,0.339,0.835,0.685,1.154,1.129c0.354,0.492,0.333,0.978-0.111,1.383
		c-0.458,0.416-0.891,0.866-1.441,1.169c-0.541,0.298-1.109,0.496-1.729,0.547C21.667,25.312,21.507,25.324,21.347,25.337z"/>
</g>
</svg>
