<?xml version="1.0" encoding="iso-8859-1"?>
<!-- Generator: Adobe Illustrator 16.0.0, SVG Export Plug-In . SVG Version: 6.00 Build 0)  -->
<!DOCTYPE svg PUBLIC "-//W3C//DTD SVG 1.1//EN" "http://www.w3.org/Graphics/SVG/1.1/DTD/svg11.dtd">
<svg version="1.1" id="Layer_1" xmlns="http://www.w3.org/2000/svg" xmlns:xlink="http://www.w3.org/1999/xlink" x="0px" y="0px"
	 width="142px" height="44px" viewBox="0 0 142 44" style="enable-background:new 0 0 142 44;" xml:space="preserve">
<g>
	<g>
		<polygon style="opacity:0.4;fill:#FFFFFF;" points="4.611,44 4.611,8.119 14.909,17.425 14.909,34.689 33.973,34.689 44.095,44 		
			"/>
		<path style="opacity:0.4;fill:#FFFFFF;" d="M40.752,27.1c3.343-1.451,4.607-3.978,4.607-10.126
			c0-8.042-3.161-10.396-10.208-10.396H5.874L16.176,15.8H32.71c2.168,0,3.072,0.903,3.072,3.707c0,2.711-0.904,3.615-3.072,3.615
			h-8.583l21.231,19.249v-8.043C45.359,29.717,44.275,28.725,40.752,27.1L40.752,27.1z"/>
		<polygon style="fill:#FFFFFF;" points="0,39.568 0,3.777 10.301,13.088 10.301,30.352 29.367,30.352 39.486,39.568 		"/>
		<path style="fill:#FFFFFF;" d="M36.144,22.759c3.343-1.444,4.608-4.068,4.608-10.124c0-8.045-3.163-10.392-10.213-10.392H1.266
			l10.304,9.215h16.532c2.168,0,3.072,0.907,3.072,3.708c0,2.623-0.904,3.523-3.072,3.523h-8.585l21.236,19.343V29.99
			C40.752,25.379,39.668,24.388,36.144,22.759L36.144,22.759z"/>
		<path style="fill:#FFFFFF;" d="M68.398,7.034h-9.214v3.797h9.214c1.179,0,1.811-0.545,1.811-1.898
			C70.208,7.485,69.577,7.034,68.398,7.034L68.398,7.034z M70.208,20.681L70.208,20.681v-3.256c0-0.812-0.453-1.895-1.898-1.895
			h-9.126v5.15h-5.783V2.244h16.808c3.977,0,5.692,1.264,5.692,5.423c0,3.164-0.725,4.427-2.531,5.152
			c1.988,0.901,2.531,1.442,2.531,3.794v4.068H70.208z"/>
		<rect x="79.24" y="2.244" style="fill:#FFFFFF;" width="5.783" height="18.437"/>
		<path style="fill:#FFFFFF;" d="M99.932,20.951c-11.93,0-12.195-0.54-12.195-9.398c0-8.949,0.266-9.58,12.195-9.58
			c10.932,0,12.107,0.362,12.107,6.959h-5.783c0-2.079,0-2.172-6.414-2.172c-6.326,0-6.414,0.094-6.414,4.793
			c0,4.518,0.182,4.608,6.504,4.608c6.324,0,6.324,0,6.324-1.9h-7.047v-4.064h12.83C112.039,20.951,112.039,20.951,99.932,20.951
			L99.932,20.951z"/>
		<polygon style="fill:#FFFFFF;" points="53.401,43.727 53.401,25.291 58.371,25.291 58.371,38.938 69.756,38.938 69.756,43.727 		
			"/>
		<path style="fill:#FFFFFF;" d="M109.961,43.727l-8.582-13.648c-0.182-0.27-0.271-0.994-0.543-0.994
			c-0.092,0-0.092,0.094-0.092,0.094c0,0.357,0.453,1.445,0.453,1.809v12.74h-4.971V25.291h8.223l8.494,13.646
			c0.092,0.182,0.361,0.994,0.633,0.994c0,0,0,0,0-0.182c0-0.271-0.451-1.357-0.451-1.717V25.291h5.059v18.436H109.961z"/>
		<path style="fill:#FFFFFF;" d="M132.912,30.078h-8.221v8.859h8.221c2.08,0,2.707-1.084,2.707-4.43
			C135.619,31.074,134.992,30.078,132.912,30.078L132.912,30.078z M133.723,43.727L133.723,43.727h-14.002V25.291h14.002
			c5.783,0,6.871,2.076,6.871,9.217C140.594,41.555,139.506,43.727,133.723,43.727L133.723,43.727z"/>
		<path style="fill:#FFFFFF;" d="M79.873,36.316l2.893-6.869h0.811l2.895,6.869H79.873z M89.633,43.727L89.633,43.727h5.873
			l-8.135-18.436h-8.492L70.84,43.727h5.783l1.533-3.613h9.938L89.633,43.727z"/>
		<path style="fill:#FFFFFF;" d="M122.793,13.267l3.342-6.867h0.906l3.342,6.867H122.793z M133.996,20.681L133.996,20.681h6.686
			l-9.215-18.437h-9.758l-9.217,18.437h6.686l1.715-3.525h11.387L133.996,20.681z"/>
	</g>
</g>
</svg>
